<svg width="18" height="14" viewBox="0 0 18 14" fill="none" xmlns="http://www.w3.org/2000/svg">
<path d="M17.3778 1.98331C17.3261 1.91958 17.2609 1.8681 17.187 1.83256C17.113 1.79702 17.0321 1.7783 16.95 1.77776H5.38334L5.74445 2.88887H16.2222L14.7389 9.55554H6.40557L3.86668 1.51665C3.83922 1.43135 3.79153 1.35396 3.72768 1.29108C3.66383 1.2282 3.58572 1.18169 3.50001 1.15554L1.22223 0.455536C1.15219 0.434014 1.0786 0.426498 1.00566 0.433416C0.932716 0.440335 0.86185 0.461553 0.797107 0.495859C0.666353 0.565143 0.568476 0.683532 0.52501 0.824981C0.481544 0.96643 0.496049 1.11935 0.565333 1.25011C0.634618 1.38086 0.753006 1.47874 0.894455 1.5222L2.8889 2.13331L5.4389 10.1889L4.52779 10.9333L4.45557 11.0055C4.2302 11.2653 4.10246 11.5954 4.09434 11.9392C4.08623 12.283 4.19825 12.6188 4.41112 12.8889C4.56254 13.073 4.75496 13.2192 4.97298 13.3156C5.19099 13.4121 5.42856 13.4562 5.66668 13.4444H14.9389C15.0862 13.4444 15.2275 13.3859 15.3317 13.2817C15.4359 13.1775 15.4945 13.0362 15.4945 12.8889C15.4945 12.7415 15.4359 12.6002 15.3317 12.496C15.2275 12.3918 15.0862 12.3333 14.9389 12.3333H5.57779C5.51381 12.3311 5.45148 12.3125 5.39682 12.2792C5.34216 12.2459 5.29701 12.199 5.26573 12.1432C5.23445 12.0873 5.21811 12.0244 5.21827 11.9603C5.21844 11.8963 5.23511 11.8334 5.26668 11.7778L6.60557 10.6666H15.1833C15.3118 10.6698 15.4373 10.6283 15.5386 10.5493C15.6399 10.4703 15.7107 10.3586 15.7389 10.2333L17.5 2.45554C17.5169 2.37271 17.5147 2.28713 17.4935 2.20529C17.4723 2.12346 17.4327 2.04754 17.3778 1.98331Z" fill="white"/>
</svg>
