<svg width="18" height="18" viewBox="0 0 18 18" fill="none" xmlns="http://www.w3.org/2000/svg">
<path fill-rule="evenodd" clip-rule="evenodd" d="M4.41562 1.96312C4.35331 1.8832 4.27473 1.81742 4.18509 1.77014C4.09545 1.72287 3.99679 1.69518 3.89564 1.6889C3.79449 1.68263 3.69316 1.69791 3.59836 1.73374C3.50356 1.76957 3.41746 1.82513 3.34575 1.89675L2.2545 2.988C1.74487 3.49762 1.557 4.21987 1.78087 4.85325C2.70419 7.47722 4.20646 9.85964 6.17625 11.8237C8.14038 13.7935 10.5228 15.2958 13.1467 16.2191C13.7801 16.4419 14.5024 16.2551 15.012 15.7455L16.1032 14.6542C16.1748 14.5825 16.2303 14.4963 16.266 14.4014C16.3018 14.3066 16.3169 14.2053 16.3106 14.1041C16.3042 14.0029 16.2764 13.9043 16.229 13.8147C16.1816 13.7251 16.1157 13.6466 16.0357 13.5844L13.6035 11.6921C13.5179 11.6256 13.4184 11.5794 13.3124 11.557C13.2064 11.5346 13.0966 11.5366 12.9915 11.5627L10.683 12.1399C10.3746 12.2171 10.0515 12.2131 9.74514 12.1283C9.43876 12.0436 9.15956 11.8809 8.93475 11.6561L6.345 9.06525C6.12025 8.84043 5.95756 8.56123 5.87279 8.25486C5.78801 7.94848 5.78404 7.62537 5.86125 7.317L6.43837 5.0085C6.46456 4.90335 6.46652 4.79363 6.44411 4.68761C6.42169 4.58159 6.3755 4.48205 6.309 4.3965L4.41562 1.96312ZM2.55037 1.1025C2.73495 0.918038 2.95664 0.774938 3.20073 0.682688C3.44483 0.590439 3.70575 0.55115 3.96619 0.567427C4.22663 0.583705 4.48063 0.655177 4.71134 0.777101C4.94205 0.899026 5.1442 1.06862 5.30437 1.27462L7.1955 3.70687C7.54312 4.15237 7.66575 4.734 7.5285 5.28187L6.95137 7.5915C6.92136 7.71134 6.92289 7.83691 6.95581 7.95599C6.98873 8.07507 7.05193 8.18359 7.13925 8.271L9.73125 10.8607C9.81865 10.9481 9.92717 11.0113 10.0463 11.0442C10.1653 11.0771 10.2909 11.0786 10.4107 11.0486L12.7192 10.4715C12.99 10.4039 13.2726 10.3987 13.5457 10.4564C13.8187 10.5141 14.0751 10.6331 14.2954 10.8045L16.7276 12.6956C17.6017 13.3751 17.6827 14.6677 16.8997 15.4496L15.8085 16.5409C15.0289 17.3205 13.8622 17.6636 12.7744 17.2811C9.99158 16.3016 7.46499 14.7082 5.382 12.6191C3.29247 10.5362 1.69869 8.00964 0.718871 5.22675C0.336371 4.13887 0.679496 2.97225 1.45912 2.1915L2.55037 1.10137V1.1025Z" fill="black"/>
</svg>
