<svg width="160" height="31" viewBox="0 0 160 31" fill="none" xmlns="http://www.w3.org/2000/svg">
<path d="M41.9168 9.42486L40.3517 15.1694C40.1686 15.8518 40.0354 16.4513 39.9355 17.0506C39.8357 16.4513 39.7523 16.052 39.5358 15.2196L38.021 9.42486H35.0403L33.958 20.9969H36.2725L36.672 14.9528C36.722 14.2369 36.7553 13.5544 36.7553 12.8714C36.8717 13.5374 37.0714 14.3537 37.2214 14.9196L38.8698 20.9969H40.8513L42.6827 14.6698C42.8827 13.9704 42.9826 13.5544 43.1158 12.8884C43.1158 13.5043 43.149 14.087 43.1989 14.8198L43.6318 20.9969H45.9132L44.8806 9.42486H41.9168Z" fill="#231F20"/>
<path d="M52.6259 19.3985C52.0765 19.3985 51.6103 19.2651 51.2438 18.999C50.5445 18.4996 50.2116 17.2506 50.2116 15.2524C50.2116 13.8539 50.395 12.8379 50.7941 12.0892C51.1276 11.4727 51.81 11.0732 52.5927 11.0732C53.825 11.0732 54.4406 11.9558 54.624 12.5387C54.824 13.188 54.9236 14.037 54.9236 15.2195C54.9236 18.1661 54.2409 19.3985 52.6259 19.3985ZM52.6259 9.27491C51.7602 9.27491 50.9111 9.47493 50.2283 9.84114C48.5634 10.7569 47.6141 12.755 47.6141 15.2524C47.6141 16.9509 48.0636 18.4161 48.9461 19.5484C49.8286 20.6971 50.9608 21.1801 52.7093 21.1801C53.6747 21.1801 54.3242 21.0302 55.0235 20.6472C56.7052 19.7316 57.6043 17.7667 57.6043 15.1526C57.6043 11.5228 55.7063 9.27491 52.6259 9.27491Z" fill="#231F20"/>
<path d="M65.382 14.1538C65.3987 14.9528 65.4823 16.4349 65.5652 17.334C65.3322 16.5015 64.8828 15.286 64.3001 14.0537L62.0854 9.42486H59.5045V20.9969H61.7525L61.6858 16.052C61.6691 15.0858 61.6524 13.7206 61.5694 12.7718C61.7855 13.4876 62.4851 15.1196 63.1345 16.5681L65.1159 20.9969H67.5468V9.42486H65.3322L65.382 14.1538Z" fill="#231F20"/>
<path d="M70.3445 20.9969H72.7756V9.42516H70.3445V20.9969Z" fill="#231F20"/>
<path d="M74.4412 11.3563H77.2718V20.9969H79.6361V11.3563H82.3999L82.7833 9.42486H74.4412V11.3563Z" fill="#231F20"/>
<path d="M87.8454 19.3985C87.296 19.3985 86.8298 19.2651 86.4634 18.999C85.764 18.4996 85.4314 17.2506 85.4314 15.2524C85.4314 13.8539 85.6145 12.8379 86.0138 12.0892C86.3467 11.4727 87.0299 11.0732 87.8122 11.0732C89.0444 11.0732 89.6603 11.9558 89.8435 12.5387C90.0435 13.188 90.1431 14.037 90.1431 15.2195C90.1431 18.1661 89.4606 19.3985 87.8454 19.3985ZM87.8454 9.27491C86.9797 9.27491 86.1309 9.47493 85.4477 9.84114C83.7831 10.7569 82.8338 12.755 82.8338 15.2524C82.8338 16.9509 83.2829 18.4161 84.1661 19.5484C85.048 20.6971 86.1803 21.1801 87.9288 21.1801C88.8945 21.1801 89.544 21.0302 90.2433 20.6472C91.9252 19.7316 92.8238 17.7667 92.8238 15.1526C92.8238 11.5228 90.9258 9.27491 87.8454 9.27491Z" fill="#231F20"/>
<path d="M97.7875 14.4201H97.0051V11.2899H97.8378C98.4039 11.2899 98.8867 11.3563 99.1533 11.4564C99.7025 11.6561 99.986 12.1557 99.986 12.8714C99.986 13.3545 99.8191 13.7706 99.5362 14.0369C99.2197 14.3199 98.7869 14.4201 97.7875 14.4201ZM99.8524 16.0186C101.285 15.9852 102.433 14.5531 102.433 12.8216C102.433 10.7901 101.085 9.42486 99.0367 9.42486H94.7245V20.9969H97.0051V16.1686C97.155 16.185 97.2551 16.2182 97.3714 16.2681C97.7875 16.4513 98.1374 17.0176 99.2865 19.099C99.7358 19.9146 99.9192 20.231 100.369 20.9969H103.116C103.116 20.9969 101.001 17.334 100.335 16.5015C100.185 16.3016 100.086 16.2016 99.8524 16.0186Z" fill="#231F20"/>
<path d="M110.825 16.3182C111.075 15.5523 111.225 15.0028 111.441 14.1704C111.657 13.3044 111.99 11.9392 111.99 11.9392C111.99 11.9392 112.34 13.4543 112.457 13.9874C112.706 15.1028 113.089 16.3182 113.089 16.3182H110.825ZM110.808 9.39155L107.012 20.9969H109.443L110.259 18.2498H113.656L114.471 20.9969H116.969L113.322 9.39155H110.808Z" fill="#231F20"/>
<path d="M123.929 16.8342C123.929 17.4505 123.929 17.6169 123.895 17.8668C123.796 18.7159 123.146 19.2154 122.131 19.2154C121.365 19.2154 120.815 18.9325 120.549 18.4162C120.415 18.1662 120.349 17.75 120.349 17.0342V9.42488H117.968V17.4839C117.968 18.5994 118.084 19.0653 118.468 19.6647C119.117 20.6808 120.415 21.2135 122.18 21.2135C124.678 21.2135 125.81 19.9481 126.11 19.0322C126.276 18.5327 126.293 18.3165 126.293 17.2171V9.42488H123.929V16.8342Z" fill="#231F20"/>
<path d="M132.638 19.099H131.389V11.2564H132.455C133.37 11.2564 133.903 11.5895 134.286 12.2223C134.752 12.9882 134.869 14.1202 134.869 15.4691C134.869 17.9167 134.17 19.099 132.638 19.099ZM133.37 9.4913C132.904 9.45817 132.022 9.42486 131.356 9.42486H129.025V20.9969H131.839C132.521 20.9969 133.071 20.9635 133.504 20.9305C134.586 20.8471 135.619 20.2146 136.318 19.2651C137.1 18.2163 137.483 16.8342 137.483 15.2525C137.483 13.1714 136.967 11.6894 135.901 10.6404C135.202 9.94095 134.353 9.57474 133.37 9.4913Z" fill="#231F20"/>
<path d="M139.617 20.9969H142.048V9.42516H139.617V20.9969Z" fill="#231F20"/>
<path d="M149.091 19.3985C148.542 19.3985 148.076 19.2651 147.71 18.999C147.01 18.4996 146.677 17.2506 146.677 15.2524C146.677 13.8539 146.86 12.8379 147.26 12.0892C147.593 11.4727 148.276 11.0732 149.058 11.0732C150.29 11.0732 150.906 11.9558 151.089 12.5387C151.289 13.188 151.389 14.037 151.389 15.2195C151.389 18.1661 150.706 19.3985 149.091 19.3985ZM149.091 9.27491C148.226 9.27491 147.376 9.47493 146.694 9.84114C145.029 10.7569 144.08 12.755 144.08 15.2524C144.08 16.9509 144.529 18.4161 145.412 19.5484C146.294 20.6971 147.426 21.1801 149.175 21.1801C150.14 21.1801 150.79 21.0302 151.489 20.6472C153.171 19.7316 154.07 17.7667 154.07 15.1526C154.07 11.5228 152.172 9.27491 149.091 9.27491Z" fill="#231F20"/>
<path d="M11.2943 10.7169C11.9977 10.7169 12.7504 10.872 13.5331 11.1776V21.1427H16.9603V11.1731C17.7414 10.8679 18.4928 10.7134 19.1951 10.7134C21.4986 10.7134 22.7805 12.3704 22.8169 13.9296C22.8809 16.6711 21.6567 17.9116 19.6285 19.9667L19.3209 20.2787L19.315 21.1339H25.0778L25.0774 20.205H21.0127C21.6466 19.7853 22.6148 19.0362 23.4331 18.1952C24.8668 16.7221 25.5758 15.3146 25.54 14.0116C25.4436 10.4654 22.1205 9.63231 22.1031 9.62894C22.0682 9.61707 21.2373 9.33821 20.0526 9.33821C18.929 9.33821 17.8895 9.585 16.9585 10.0724L16.961 9.44239L13.5284 9.44735L13.5296 10.0763C12.5991 9.58961 11.5606 9.34299 10.4379 9.34299C9.24787 9.34299 8.4122 9.62469 8.39339 9.63196C8.35981 9.6401 5.03812 10.4779 4.94677 14.0242C4.91438 15.2866 5.60277 16.6493 6.99307 18.0744C7.87634 18.9797 8.93721 19.7759 9.61668 20.2123L5.41834 20.2174L5.41972 21.1465L11.1825 21.138L11.1753 20.2826L10.8675 19.9714C8.83602 17.9194 7.60982 16.6807 7.6699 13.9393C7.7041 12.3772 8.98593 10.7169 11.2943 10.7169Z" fill="#231F20"/>
<path d="M158.405 15.2987C158.405 20.9202 156.196 24.909 151.839 27.1541C148.524 28.8624 145.135 28.8905 145.102 28.8907H22.0252C27.0357 26.3903 30.4871 21.214 30.4871 15.2441C30.4871 9.27176 27.0328 4.09348 22.0186 1.59452H145.102C150.6 1.59452 154.502 3.84916 156.701 8.29573C158.378 11.6874 158.405 15.1528 158.405 15.1866V15.2987ZM1.59452 15.2441C1.59452 7.71816 7.71742 1.59522 15.2435 1.59522C22.7696 1.59522 28.8926 7.71816 28.8926 15.2441C28.8926 22.736 22.8247 28.8352 15.3458 28.8907H15.1981V28.8921C7.69285 28.8673 1.59452 22.755 1.59452 15.2441ZM158.156 7.6411C156.448 4.15531 152.797 1.90735e-06 145.102 1.90735e-06H15.1981V0.00177383C6.81358 0.0267544 0 6.85411 0 15.2441C0 23.6495 6.83815 30.4877 15.2435 30.4877C15.2778 30.4877 15.3115 30.4854 15.3458 30.4852H145.102C145.254 30.4852 148.861 30.4636 152.515 28.5994C155.93 26.8571 160 23.1352 160 15.2987V15.1866C160 15.0321 159.979 11.3616 158.156 7.6411Z" fill="#231F20"/>
</svg>
