<svg width="59" height="31" viewBox="0 0 59 31" fill="none" xmlns="http://www.w3.org/2000/svg">
<path d="M29.7284 27.0749L41.6265 31V0L29.7284 3.92507V27.0749Z" fill="#4CC7E9"/>
<path d="M0 11.7922H2.04015V12.9558C2.28478 12.5468 2.6296 12.2088 3.04116 11.9746C3.45272 11.7403 3.91706 11.6177 4.38914 11.6188C6.18949 11.6188 7.57805 12.9732 7.57805 15.4222V15.5439C7.57805 17.9924 6.20665 19.382 4.38914 19.382C3.91976 19.4011 3.45398 19.2918 3.04067 19.0656C2.62736 18.8395 2.28176 18.5048 2.04015 18.0967V21.7611H0V11.7922ZM5.50317 15.5608V15.4392C5.50317 13.9283 4.76784 13.1987 3.7543 13.1987C2.69215 13.1987 1.95395 13.9436 1.95395 15.4392V15.5608C1.95395 17.0543 2.65701 17.7839 3.7543 17.7839C4.88631 17.7661 5.50317 17.0021 5.50317 15.5608Z" fill="#333740"/>
<path d="M8.67493 16.5854V11.7921H10.6979V16.2903C10.6979 17.2976 11.1093 17.7838 11.9668 17.7838C12.8243 17.7838 13.4926 17.2458 13.4926 16.1513V11.7921H15.5156V19.2251H13.5098V18.0615C13.2904 18.4878 12.9529 18.8399 12.5386 19.0744C12.1243 19.309 11.6513 19.4157 11.1779 19.3816C9.73708 19.3816 8.67493 18.5303 8.67493 16.5854Z" fill="#333740"/>
<path d="M17.0757 8.42285H19.0987V19.2078H17.0757V8.42285Z" fill="#333740"/>
<path d="M20.9162 17.0196V13.2509H19.9733V11.7922H20.9162V10.1945H22.9392V11.7922H24.4822V13.2509H22.9392V16.8284C22.9392 17.4189 23.2305 17.714 23.7448 17.714C24.0089 17.7248 24.2722 17.6774 24.5165 17.5749V19.1743C24.1192 19.3109 23.7013 19.3757 23.2819 19.3655C21.7565 19.3643 20.9162 18.5652 20.9162 17.0196Z" fill="#333740"/>
<path d="M46.9243 11.7923H48.9644V13.2162C49.1527 12.7437 49.4819 12.3425 49.9061 12.0686C50.3302 11.7946 50.8282 11.6616 51.3305 11.688V13.5982C49.8219 13.5808 48.9644 14.0844 48.9644 15.5083V19.2249H46.9243V11.7923Z" fill="#333740"/>
<path d="M52.1533 16.5855V11.7922H54.1763V16.2904C54.1763 17.2977 54.5877 17.7839 55.4448 17.7839C56.3018 17.7839 56.9706 17.246 56.9706 16.1514V11.7922H58.9936V19.2253H56.9706V18.0616C56.7513 18.4879 56.4137 18.84 55.9994 19.0746C55.5851 19.3091 55.1122 19.4158 54.6388 19.3817C53.2155 19.3817 52.1533 18.5304 52.1533 16.5855Z" fill="#333740"/>
</svg>
